<svg width="24" height="24" viewBox="0 0 24 24" fill="none" xmlns="http://www.w3.org/2000/svg">
<path d="M9.38721 6.67383C9.48803 6.67383 9.56501 6.70424 9.64307 6.78223L14.5874 11.7266C14.6413 11.7805 14.6665 11.8225 14.6782 11.8506V11.8516C14.693 11.8871 14.7017 11.9269 14.7017 11.9756C14.7017 12.0243 14.693 12.064 14.6782 12.0996V12.1006C14.6665 12.1287 14.6413 12.1707 14.5874 12.2246L9.61865 17.1934C9.54088 17.2711 9.47374 17.293 9.39307 17.29C9.29904 17.2865 9.21818 17.2547 9.13232 17.1689C9.0542 17.0908 9.02295 17.014 9.02295 16.9131C9.02295 16.8122 9.0542 16.7354 9.13232 16.6572L13.814 11.9756L9.10693 7.26855C9.02927 7.19085 9.00733 7.12455 9.01025 7.04395C9.0137 6.94968 9.04627 6.86828 9.13232 6.78223C9.21025 6.70442 9.28662 6.6739 9.38721 6.67383Z" fill="black" stroke="black"/>
</svg>
